<?xml version="1.0" encoding="UTF-8"?>
<!DOCTYPE svg PUBLIC "-//W3C//DTD SVG 1.1//EN" "http://www.w3.org/Graphics/SVG/1.1/DTD/svg11.dtd">
<!-- Creator: CorelDRAW X7 -->
<svg xmlns="http://www.w3.org/2000/svg" xml:space="preserve" width="450mm" height="100mm" version="1.1" style="shape-rendering:geometricPrecision; text-rendering:geometricPrecision; image-rendering:optimizeQuality; fill-rule:evenodd; clip-rule:evenodd"
viewBox="0 0 45000 10000"
 xmlns:xlink="http://www.w3.org/1999/xlink">
 <defs>
  <style type="text/css">
   <![CDATA[
    .fil1 {fill:#848688}
    .fil0 {fill:#FEFEFE;fill-rule:nonzero}
   ]]>
  </style>
 </defs>
 <g id="Camada_x0020_1">
  <metadata id="CorelCorpID_0Corel-Layer"/>
  <path class="fil0" d="M5529 5157l2650 0c-35,621 -258,1131 -670,1530 -412,399 -918,599 -1516,599 -615,0 -1130,-215 -1544,-644 -415,-429 -623,-962 -623,-1598 0,-299 57,-581 170,-849 113,-267 279,-508 498,-723 210,-209 443,-364 699,-465 256,-101 540,-152 853,-152 413,0 784,100 1113,300 330,200 594,486 792,857l-515 0c-201,-256 -417,-445 -646,-567 -230,-122 -486,-183 -769,-183 -490,0 -905,175 -1244,526 -338,350 -507,772 -507,1263 0,523 169,960 506,1310 338,348 755,523 1251,523 390,0 740,-125 1050,-376 310,-249 511,-574 605,-973l-2153 0 0 -378zm3581 2045l-420 0 0 -3220 391 0 0 373c101,-144 211,-248 331,-315 119,-67 258,-102 417,-106l3 450c-258,23 -443,101 -554,233 -112,131 -168,345 -168,642l0 1943zm1073 -3220l408 0 0 1709c0,439 71,749 214,931 142,183 377,274 702,274 186,0 349,-38 489,-113 141,-75 254,-184 340,-326 49,-84 84,-182 106,-296 21,-115 32,-313 32,-596l0 -1583 413 0 0 3220 -413 0 0 -350c-125,153 -265,263 -419,331 -154,69 -341,103 -560,103 -464,0 -799,-125 -1004,-376 -205,-251 -308,-667 -308,-1249l0 -1679zm3347 0l408 0 0 526c117,-182 285,-327 503,-435 216,-109 448,-163 694,-163 487,0 890,162 1208,485 319,323 479,726 479,1210 0,473 -158,870 -473,1195 -315,324 -709,486 -1181,486 -262,0 -498,-51 -707,-152 -210,-102 -384,-250 -523,-443l0 223 0 481 0 850 -408 0 0 -4263zm408 1588c0,367 121,681 364,941 241,261 526,391 855,391 338,0 628,-124 870,-371 242,-246 363,-549 363,-908 0,-377 -122,-693 -364,-947 -243,-255 -538,-382 -884,-382 -319,0 -599,128 -840,384 -243,255 -364,552 -364,892zm3639 17c0,372 118,683 354,933 236,251 531,376 882,376 346,0 636,-125 870,-376 235,-250 352,-563 352,-938 0,-381 -119,-694 -356,-938 -238,-245 -538,-368 -904,-368 -328,0 -610,126 -846,378 -234,251 -352,562 -352,933zm-432 8c0,-473 162,-876 486,-1211 323,-336 707,-504 1150,-504 467,0 864,165 1193,495 329,330 493,722 493,1179 0,480 -161,889 -483,1229 -322,339 -712,509 -1171,509 -466,0 -861,-166 -1183,-499 -323,-333 -485,-732 -485,-1198zm7047 -2656l419 0 0 2872c0,250 -13,445 -40,584 -26,141 -70,263 -133,367 -98,168 -232,298 -405,391 -173,93 -366,139 -579,139 -319,0 -576,-103 -770,-309 -194,-206 -291,-479 -291,-818l419 0c12,210 80,381 204,512 124,130 278,195 461,195 260,0 444,-83 552,-248 109,-165 163,-494 163,-989l0 -2696zm1120 1043l408 0 0 1709c0,439 71,749 213,931 142,183 377,274 703,274 186,0 349,-38 489,-113 141,-75 254,-184 340,-326 49,-84 83,-182 105,-296 21,-115 32,-313 32,-596l0 -1583 414 0 0 3220 -414 0 0 -350c-124,153 -264,263 -418,331 -154,69 -341,103 -560,103 -465,0 -799,-125 -1004,-376 -205,-251 -308,-667 -308,-1249l0 -1679zm3773 3220l-420 0 0 -3220 391 0 0 373c101,-144 210,-248 330,-315 119,-67 259,-102 418,-106l3 450c-258,23 -444,101 -555,233 -111,131 -167,345 -167,642l0 1943zm1091 0l0 -3220 414 0 0 3220 -414 0zm113 -3652l-269 0 611 -1025 444 0 -786 1025zm3690 2073c0,-367 -122,-681 -365,-939 -244,-260 -529,-390 -858,-390 -339,0 -630,124 -872,371 -243,246 -364,548 -364,905 0,377 122,693 365,948 243,256 538,384 883,384 318,0 600,-128 844,-384 244,-255 367,-553 367,-895zm-12 -1133l0 -717 0 -834 413 0 0 4263 -413 0 0 -488c-144,180 -324,320 -539,421 -215,101 -442,151 -683,151 -464,0 -855,-164 -1173,-492 -319,-328 -478,-730 -478,-1206 0,-473 157,-870 472,-1193 314,-323 708,-485 1179,-485 254,0 485,49 693,148 208,99 385,243 529,432zm1486 -886l-414 0 0 -665 414 0 0 665zm-414 3598l0 -3220 414 0 0 3220 -414 0zm3659 -2231c-127,-235 -282,-408 -465,-520 -182,-113 -400,-169 -652,-169 -331,0 -613,126 -845,378 -231,251 -347,562 -347,933 0,371 116,681 349,929 232,249 520,374 861,374 250,0 471,-61 662,-184 192,-123 337,-296 437,-517l455 0c-125,348 -320,619 -588,810 -267,191 -582,287 -946,287 -465,0 -859,-166 -1180,-497 -321,-331 -482,-729 -482,-1196 0,-476 163,-879 488,-1210 325,-331 721,-497 1186,-497 350,0 658,94 924,283 267,189 465,455 598,796l-455 0zm1313 616c0,372 118,683 355,933 236,251 530,376 881,376 346,0 637,-125 871,-376 234,-250 351,-563 351,-938 0,-381 -119,-694 -355,-938 -238,-245 -539,-368 -905,-368 -328,0 -609,126 -845,378 -235,251 -353,562 -353,933zm-432 8c0,-473 162,-876 486,-1211 324,-336 707,-504 1150,-504 467,0 865,165 1193,495 329,330 493,722 493,1179 0,480 -161,889 -483,1229 -321,339 -712,509 -1171,509 -466,0 -860,-166 -1183,-499 -323,-333 -485,-732 -485,-1198z"/>
  <rect class="fil1" x="1600" y="901" width="344" height="8088"/>
 </g>
</svg>
