<?xml version="1.0" encoding="UTF-8"?>
<!DOCTYPE svg PUBLIC "-//W3C//DTD SVG 1.1//EN" "http://www.w3.org/Graphics/SVG/1.1/DTD/svg11.dtd">
<!-- Creator: CorelDRAW X7 -->
<svg xmlns="http://www.w3.org/2000/svg" xml:space="preserve" width="400mm" height="100mm" version="1.1" style="shape-rendering:geometricPrecision; text-rendering:geometricPrecision; image-rendering:optimizeQuality; fill-rule:evenodd; clip-rule:evenodd"
viewBox="0 0 40000 10000"
 xmlns:xlink="http://www.w3.org/1999/xlink">
 <defs>
  <style type="text/css">
   <![CDATA[
    .fil0 {fill:#373435;fill-rule:nonzero}
    .fil1 {fill:#00AFEF;fill-rule:nonzero}
   ]]>
  </style>
 </defs>
 <g id="Camada_x0020_1">
  <metadata id="CorelCorpID_0Corel-Layer"/>
  <path class="fil0" d="M2174 3511l2650 0c-35,621 -259,1131 -670,1530 -412,399 -918,599 -1517,599 -614,0 -1129,-215 -1544,-644 -414,-429 -622,-962 -622,-1598 0,-299 57,-581 170,-849 113,-267 279,-508 497,-723 211,-209 444,-364 700,-465 256,-101 540,-152 852,-152 414,0 785,100 1114,300 330,200 593,486 792,857l-515 0c-201,-256 -417,-445 -646,-567 -230,-122 -486,-183 -770,-183 -489,0 -904,175 -1243,526 -339,350 -507,772 -507,1263 0,523 168,960 506,1309 338,349 755,524 1250,524 391,0 741,-125 1051,-376 310,-249 511,-574 604,-973l-2152 0 0 -378zm3581 2045l-420 0 0 -3220 391 0 0 373c101,-144 210,-248 330,-315 119,-67 259,-102 418,-106l3 450c-258,23 -444,101 -555,233 -111,131 -167,345 -167,642l0 1943zm1073 -3220l408 0 0 1709c0,439 71,749 214,931 141,183 376,274 702,274 186,0 349,-38 489,-113 141,-75 254,-184 340,-326 49,-84 84,-182 106,-296 21,-115 32,-313 32,-596l0 -1583 413 0 0 3220 -413 0 0 -350c-125,153 -265,263 -419,331 -154,69 -341,103 -560,103 -465,0 -799,-125 -1004,-376 -205,-251 -308,-667 -308,-1249l0 -1679zm3347 0l408 0 0 526c117,-182 284,-327 502,-435 217,-109 449,-163 695,-163 487,0 889,162 1208,485 319,322 479,726 479,1210 0,473 -158,870 -473,1195 -316,324 -709,486 -1181,486 -262,0 -498,-51 -708,-152 -210,-102 -383,-250 -522,-443l0 223 0 481 0 850 -408 0 0 -4263zm408 1588c0,367 121,681 363,941 242,261 527,391 856,391 338,0 627,-124 869,-371 243,-246 364,-549 364,-908 0,-377 -122,-693 -365,-947 -243,-255 -537,-382 -883,-382 -319,0 -599,128 -841,384 -242,255 -363,552 -363,892zm3638 17c0,372 118,683 355,933 236,251 531,376 882,376 345,0 636,-125 870,-376 235,-250 352,-563 352,-938 0,-381 -119,-694 -356,-938 -238,-245 -539,-368 -904,-368 -328,0 -610,126 -846,378 -235,251 -353,562 -353,933zm-431 8c0,-473 162,-877 485,-1211 324,-336 708,-504 1151,-504 466,0 864,165 1193,495 329,329 493,722 493,1179 0,480 -161,889 -483,1229 -322,339 -713,509 -1171,509 -466,0 -861,-166 -1184,-499 -322,-333 -484,-732 -484,-1198zm7046 -2656l420 0 0 2872c0,250 -13,445 -40,584 -26,141 -70,263 -133,367 -98,168 -233,298 -406,391 -172,93 -365,139 -578,139 -319,0 -576,-103 -770,-309 -195,-206 -292,-479 -292,-818l420 0c12,210 80,381 204,512 124,130 278,195 461,195 260,0 444,-83 551,-248 109,-165 163,-494 163,-989l0 -2696zm1121 1043l407 0 0 1709c0,439 71,749 214,931 142,183 377,274 703,274 186,0 349,-38 489,-113 140,-75 253,-184 339,-326 49,-84 84,-182 106,-296 21,-115 32,-313 32,-596l0 -1583 414 0 0 3220 -414 0 0 -350c-125,153 -265,263 -418,331 -154,69 -341,103 -560,103 -465,0 -800,-125 -1005,-376 -204,-251 -307,-667 -307,-1249l0 -1679zm3772 3220l-419 0 0 -3220 390 0 0 373c101,-144 211,-248 331,-315 119,-67 259,-102 418,-106l3 450c-258,23 -444,101 -555,233 -112,131 -168,345 -168,642l0 1943zm1092 0l0 -3220 413 0 0 3220 -413 0zm113 -3652l-269 0 610 -1025 445 0 -786 1025zm3689 2073c0,-367 -122,-681 -364,-940 -244,-259 -529,-389 -858,-389 -340,0 -631,124 -872,371 -243,246 -364,548 -364,905 0,377 122,693 365,948 242,256 537,384 883,384 318,0 600,-128 844,-384 243,-255 366,-553 366,-895zm-12 -1133l0 -717 0 -834 414 0 0 4263 -414 0 0 -488c-144,180 -323,320 -538,421 -215,101 -442,151 -683,151 -465,0 -855,-164 -1173,-492 -319,-328 -478,-730 -478,-1206 0,-473 157,-871 472,-1193 314,-323 707,-485 1179,-485 254,0 485,49 693,148 208,99 384,243 528,432zm1486 -886l-413 0 0 -665 413 0 0 665zm-413 3598l0 -3220 413 0 0 3220 -413 0zm3658 -2231c-126,-235 -281,-408 -464,-520 -182,-113 -400,-169 -652,-169 -332,0 -613,126 -845,378 -231,251 -347,562 -347,933 0,371 116,681 349,929 232,249 519,374 861,374 250,0 471,-61 662,-184 192,-123 337,-296 436,-517l456 0c-125,348 -321,619 -588,810 -267,191 -582,287 -946,287 -466,0 -859,-166 -1180,-497 -321,-331 -482,-729 -482,-1196 0,-476 163,-880 488,-1210 325,-331 720,-497 1186,-497 350,0 658,94 924,283 266,189 465,455 598,796l-456 0zm1314 616c0,372 118,683 354,933 236,251 531,376 882,376 346,0 637,-125 870,-376 235,-250 352,-563 352,-938 0,-381 -119,-694 -356,-938 -237,-245 -538,-368 -904,-368 -328,0 -610,126 -846,378 -234,251 -352,562 -352,933zm-432 8c0,-473 162,-877 486,-1211 323,-336 707,-504 1150,-504 467,0 864,165 1193,495 329,329 493,722 493,1179 0,480 -161,889 -483,1229 -322,339 -712,509 -1171,509 -466,0 -861,-166 -1183,-499 -323,-333 -485,-732 -485,-1198z"/>
  <path class="fil1" d="M8621 7343l186 0 0 1191c0,92 3,161 11,207 7,46 19,86 36,121 34,72 83,128 149,168 65,41 138,61 220,61 142,0 247,-49 316,-146 68,-96 102,-246 102,-450l0 -1152 183 0 0 1197c0,244 -49,426 -146,546 -97,120 -245,180 -442,180 -211,0 -367,-59 -466,-176 -99,-117 -149,-300 -149,-550l0 -1197zm1497 461l177 0 0 161c56,-64 121,-112 195,-143 73,-32 158,-47 252,-47 105,0 198,19 279,58 82,39 146,95 194,167 32,51 56,111 70,179 14,69 21,170 21,303l0 744 -180 0 0 -797c0,-168 -32,-290 -96,-365 -64,-76 -167,-114 -308,-114 -83,0 -156,16 -218,50 -63,33 -112,80 -148,143 -23,38 -39,83 -47,132 -10,49 -14,136 -14,259l0 692 -177 0 0 -1422zm1663 -167l-183 0 0 -294 183 0 0 294zm-183 1589l0 -1422 183 0 0 1422 -183 0zm1680 -697c0,-162 -54,-301 -162,-415 -107,-115 -233,-172 -378,-172 -150,0 -279,55 -386,164 -107,109 -160,242 -160,399 0,167 54,306 161,419 107,113 237,170 390,170 140,0 265,-57 373,-170 107,-113 162,-244 162,-395zm-6 -501l0 -316 0 -369 183 0 0 1883 -183 0 0 -215c-63,79 -143,141 -238,186 -95,44 -195,66 -301,66 -205,0 -378,-72 -518,-217 -141,-145 -211,-323 -211,-533 0,-208 69,-384 208,-527 139,-142 313,-214 521,-214 112,0 214,22 306,66 92,43 170,107 233,190zm1673 477c0,-151 -53,-282 -162,-395 -107,-112 -231,-168 -372,-168 -153,0 -283,56 -390,168 -107,113 -161,252 -161,419 0,158 53,292 160,401 107,109 236,164 386,164 145,0 271,-58 378,-173 108,-115 161,-254 161,-416zm0 496c-57,82 -133,146 -230,192 -98,47 -202,70 -314,70 -209,0 -382,-71 -521,-214 -139,-142 -208,-319 -208,-528 0,-213 71,-391 212,-534 142,-143 319,-215 533,-215 109,0 209,22 301,67 91,45 167,109 227,192l0 -227 178 0 0 1422 -178 0 0 -225zm1668 -472c0,-162 -54,-301 -161,-415 -108,-115 -233,-172 -379,-172 -150,0 -278,55 -385,164 -107,109 -160,242 -160,399 0,167 53,306 161,419 107,113 237,170 390,170 140,0 265,-57 372,-170 108,-113 162,-244 162,-395zm-5 -501l0 -316 0 -369 183 0 0 1883 -183 0 0 -215c-64,79 -143,141 -238,186 -95,44 -195,66 -301,66 -206,0 -378,-72 -519,-217 -140,-145 -210,-323 -210,-533 0,-208 69,-384 208,-527 138,-142 312,-214 521,-214 112,0 214,22 305,66 92,43 170,107 234,190zm1866 544l-1284 0c11,155 68,280 168,376 101,95 227,143 378,143 107,0 203,-28 289,-83 85,-56 151,-133 198,-232l206 0c-65,157 -157,279 -275,363 -119,84 -256,127 -412,127 -207,0 -382,-74 -525,-221 -143,-148 -215,-325 -215,-532 0,-216 70,-395 210,-536 140,-142 319,-213 537,-213 214,0 388,74 523,221 135,147 202,338 202,574l0 13zm-201 -159c-34,-158 -98,-277 -190,-357 -92,-80 -213,-120 -361,-120 -138,0 -255,43 -351,129 -95,86 -154,202 -176,348l1078 0zm1370 813l-186 0 0 -1883 186 0 0 1883zm445 0l0 -1239 -270 0 0 -183 270 0 0 -461 183 0 0 461 270 0 0 183 -270 0 0 1239 -183 0zm1801 -721c0,-151 -54,-282 -162,-395 -108,-112 -232,-168 -373,-168 -152,0 -283,56 -390,168 -107,113 -161,252 -161,419 0,158 53,292 161,401 106,109 235,164 385,164 145,0 271,-58 379,-173 107,-115 161,-254 161,-416zm0 496c-57,82 -134,146 -231,192 -97,47 -202,70 -314,70 -208,0 -382,-71 -521,-214 -139,-142 -208,-319 -208,-528 0,-213 71,-391 213,-534 141,-143 319,-215 532,-215 109,0 210,22 301,67 91,45 167,109 228,192l0 -227 177 0 0 1422 -177 0 0 -225zm590 225l0 -1239 -270 0 0 -183 270 0 0 -461 182 0 0 461 271 0 0 183 -271 0 0 1239 -182 0zm784 -1589l-183 0 0 -294 183 0 0 294zm-183 1589l0 -1422 183 0 0 1422 -183 0zm652 -1883l0 593 0 106c77,-92 160,-160 252,-204 91,-44 194,-66 306,-66 200,0 369,72 508,216 138,144 207,319 207,525 0,213 -70,391 -212,535 -141,143 -318,215 -533,215 -105,0 -201,-21 -288,-63 -88,-41 -168,-105 -240,-189l0 215 -180 0 0 -1883 180 0zm0 1186c0,152 54,284 161,396 107,113 231,169 371,169 152,0 282,-57 390,-170 107,-113 161,-252 161,-419 0,-157 -54,-290 -161,-399 -107,-109 -235,-164 -384,-164 -149,0 -276,57 -381,171 -105,113 -157,252 -157,416zm2695 -24c0,-151 -54,-282 -162,-395 -108,-112 -232,-168 -372,-168 -153,0 -283,56 -391,168 -107,113 -161,252 -161,419 0,158 54,292 161,401 107,109 235,164 385,164 145,0 272,-58 379,-173 107,-115 161,-254 161,-416zm0 496c-57,82 -134,146 -231,192 -97,47 -201,70 -313,70 -209,0 -383,-71 -521,-214 -139,-142 -209,-319 -209,-528 0,-213 71,-391 213,-534 142,-143 319,-215 532,-215 110,0 210,22 301,67 92,45 168,109 228,192l0 -227 177 0 0 1422 -177 0 0 -225zm1795 -572l0 172 -606 0 0 -172 606 0zm946 260l177 0c4,116 37,208 100,278 62,68 145,103 247,103 110,0 197,-35 261,-103 64,-68 97,-162 97,-278 0,-171 -132,-300 -397,-387 -20,-7 -36,-12 -46,-16 -138,-47 -237,-107 -298,-180 -60,-73 -91,-168 -91,-285 0,-150 47,-273 140,-369 94,-95 215,-143 363,-143 141,0 253,44 336,131 83,86 129,209 138,367l-175 0c-9,-103 -40,-182 -91,-237 -52,-56 -122,-84 -209,-84 -93,0 -169,31 -228,91 -59,61 -89,138 -89,232 0,49 9,92 27,128 18,36 46,68 85,97 39,30 115,62 227,98 65,21 114,38 148,51 122,47 210,108 264,182 54,73 81,170 81,290 0,182 -50,329 -150,441 -99,112 -231,167 -396,167 -154,0 -278,-52 -374,-158 -96,-105 -145,-244 -147,-416zm1496 -1160l0 717 272 0c152,0 264,-28 337,-86 72,-58 108,-147 108,-268 0,-126 -36,-218 -109,-276 -73,-58 -190,-87 -351,-87l-257 0zm-186 -186l400 0c115,0 207,6 275,18 69,12 127,32 172,59 83,50 147,114 191,194 44,80 66,170 66,270 0,94 -19,182 -60,263 -40,80 -95,144 -167,192 -50,33 -110,58 -179,73 -69,15 -158,22 -265,22l-247 0 0 792 -186 0 0 -1883z"/>
 </g>
</svg>
