<?xml version="1.0" encoding="UTF-8"?>
<!DOCTYPE svg PUBLIC "-//W3C//DTD SVG 1.1//EN" "http://www.w3.org/Graphics/SVG/1.1/DTD/svg11.dtd">
<!-- Creator: CorelDRAW X7 -->
<svg xmlns="http://www.w3.org/2000/svg" xml:space="preserve" width="210mm" height="297mm" version="1.1" style="shape-rendering:geometricPrecision; text-rendering:geometricPrecision; image-rendering:optimizeQuality; fill-rule:evenodd; clip-rule:evenodd"
viewBox="0 0 21000 29700"
 xmlns:xlink="http://www.w3.org/1999/xlink">
 <defs>
  <style type="text/css">
   <![CDATA[
    .fil1 {fill:#A9ABAE}
    .fil0 {fill:#00AFEF}
   ]]>
  </style>
 </defs>
 <g id="Camada_x0020_1">
  <metadata id="CorelCorpID_0Corel-Layer"/>
  <path class="fil0" d="M11289 19705c-9054,-67 -9083,-10143 -879,-11495 -7533,2699 -6569,10602 879,11495z"/>
  <path class="fil0" d="M3446 12210c1217,-8020 10735,-7003 11611,-48 -2239,-6450 -9640,-6145 -11611,48z"/>
  <path class="fil0" d="M11267 16701c7934,-983 7040,-10751 -281,-11177 6561,2089 6393,9809 281,11177z"/>
  <path class="fil0" d="M6163 12516c279,8038 10422,7982 11880,880 -2861,6587 -11411,5495 -11880,-880z"/>
  <path class="fil1" d="M11069 15976c3802,-471 3374,-5152 -134,-5356 3143,1001 3063,4700 134,5356z"/>
  <path class="fil1" d="M10400 14609c-3802,-472 -3374,-5152 134,-5357 -3143,1002 -3063,4701 -134,5357z"/>
  <path class="fil1" d="M13998 12884c304,-3771 -4425,-4308 -5340,-958 1632,-2836 5284,-2007 5340,958z"/>
  <path class="fil1" d="M7356 12263c-305,3772 4424,4308 5339,958 -1631,2836 -5283,2007 -5339,-958z"/>
 </g>
</svg>
