<?xml version="1.0" encoding="UTF-8"?>
<!DOCTYPE svg PUBLIC "-//W3C//DTD SVG 1.1//EN" "http://www.w3.org/Graphics/SVG/1.1/DTD/svg11.dtd">
<!-- Creator: CorelDRAW X7 -->
<svg xmlns="http://www.w3.org/2000/svg" xml:space="preserve" width="210mm" height="297mm" version="1.1" style="shape-rendering:geometricPrecision; text-rendering:geometricPrecision; image-rendering:optimizeQuality; fill-rule:evenodd; clip-rule:evenodd"
viewBox="0 0 21000 29700"
 xmlns:xlink="http://www.w3.org/1999/xlink">
 <defs>
  <style type="text/css">
   <![CDATA[
    .fil1 {fill:#A9ABAE}
    .fil3 {fill:#848688}
    .fil0 {fill:#00AFEF}
    .fil2 {fill:#373435;fill-rule:nonzero}
    .fil4 {fill:#00AFEF;fill-rule:nonzero}
   ]]>
  </style>
 </defs>
 <g id="Camada_x0020_1">
  <metadata id="CorelCorpID_0Corel-Layer"/>
  <path class="fil0" d="M-6069 17388c-9054,-67 -9084,-10144 -880,-11495 -7532,2699 -6569,10602 880,11495z"/>
  <path class="fil0" d="M-13913 9893c1217,-8021 10736,-7003 11612,-49 -2239,-6450 -9640,-6145 -11612,49z"/>
  <path class="fil0" d="M-6091 14384c7933,-983 7040,-10751 -281,-11178 6560,2090 6393,9809 281,11178z"/>
  <path class="fil0" d="M-11196 10199c280,8038 10423,7981 11881,879 -2861,6587 -11412,5495 -11881,-879z"/>
  <path class="fil1" d="M-6289 13659c3802,-472 3374,-5152 -135,-5357 3144,1002 3064,4701 135,5357z"/>
  <path class="fil1" d="M-6958 12291c-3802,-471 -3374,-5152 134,-5356 -3144,1001 -3063,4700 -134,5356z"/>
  <path class="fil1" d="M-3361 10566c305,-3771 -4424,-4307 -5339,-957 1631,-2836 5284,-2007 5339,957z"/>
  <path class="fil1" d="M-10002 9946c-305,3771 4424,4308 5339,957 -1631,2836 -5284,2008 -5339,-957z"/>
  <path class="fil2" d="M5915 11250l2650 0c-35,620 -259,1130 -670,1530 -412,399 -918,598 -1516,598 -615,0 -1130,-214 -1544,-643 -415,-430 -623,-963 -623,-1598 0,-299 57,-582 170,-850 113,-267 279,-507 498,-722 210,-209 443,-364 699,-466 256,-101 540,-152 853,-152 413,0 784,100 1113,301 330,200 594,486 792,856l-515 0c-201,-255 -417,-444 -646,-566 -230,-122 -486,-183 -769,-183 -490,0 -905,175 -1244,526 -338,349 -507,771 -507,1263 0,522 169,959 506,1309 338,349 755,524 1251,524 390,0 740,-125 1050,-376 310,-250 511,-575 605,-974l-2153 0 0 -377zm3581 2044l-420 0 0 -3220 391 0 0 373c101,-144 211,-248 331,-315 118,-67 258,-102 417,-106l3 450c-258,23 -443,101 -554,233 -112,132 -168,346 -168,643l0 1942zm1073 -3220l408 0 0 1709c0,439 71,750 214,932 142,183 376,274 702,274 186,0 349,-38 489,-113 141,-75 254,-184 340,-326 49,-84 84,-183 106,-297 21,-115 32,-313 32,-596l0 -1583 413 0 0 3220 -413 0 0 -349c-125,153 -265,263 -419,330 -154,69 -341,103 -560,103 -464,0 -799,-125 -1004,-375 -205,-251 -308,-668 -308,-1250l0 -1679zm3347 0l408 0 0 526c117,-182 285,-327 502,-435 217,-109 449,-163 695,-163 487,0 889,162 1208,485 319,323 479,727 479,1210 0,473 -158,871 -473,1196 -316,324 -709,485 -1181,485 -262,0 -498,-51 -708,-152 -209,-101 -383,-249 -522,-442l0 223 0 480 0 851 -408 0 0 -4264zm408 1588c0,367 121,681 364,942 241,261 526,391 855,391 338,0 628,-124 869,-371 243,-247 364,-550 364,-909 0,-376 -122,-692 -365,-947 -242,-255 -537,-382 -883,-382 -319,0 -599,128 -840,384 -243,256 -364,553 -364,892zm3639 17c0,372 117,683 354,934 236,251 531,376 882,376 346,0 636,-125 870,-376 235,-251 352,-564 352,-939 0,-380 -119,-693 -356,-938 -238,-245 -538,-368 -904,-368 -328,0 -610,126 -846,378 -235,252 -352,563 -352,933zm-432 8c0,-472 162,-876 485,-1211 324,-336 708,-504 1151,-504 466,0 864,165 1193,495 329,330 493,723 493,1179 0,480 -161,890 -483,1230 -322,339 -713,508 -1171,508 -466,0 -861,-165 -1184,-498 -322,-333 -484,-733 -484,-1199zm7046 -2656l420 0 0 2872c0,250 -13,445 -40,585 -26,141 -70,263 -133,367 -98,168 -233,298 -405,390 -173,93 -366,139 -579,139 -319,0 -576,-103 -770,-308 -194,-206 -291,-479 -291,-819l419 0c12,211 80,382 204,513 124,130 278,195 461,195 260,0 444,-83 552,-248 108,-165 162,-495 162,-990l0 -2696zm1121 1043l408 0 0 1709c0,439 70,750 213,932 142,183 377,274 703,274 186,0 349,-38 489,-113 141,-75 254,-184 339,-326 49,-84 84,-183 106,-297 21,-115 32,-313 32,-596l0 -1583 414 0 0 3220 -414 0 0 -349c-125,153 -264,263 -418,330 -154,69 -341,103 -560,103 -465,0 -800,-125 -1004,-375 -205,-251 -308,-668 -308,-1250l0 -1679zm3772 3220l-419 0 0 -3220 390 0 0 373c101,-144 211,-248 331,-315 119,-67 259,-102 418,-106l3 450c-258,23 -444,101 -555,233 -112,132 -168,346 -168,643l0 1942zm1092 0l0 -3220 414 0 0 3220 -414 0zm113 -3651l-269 0 611 -1026 444 0 -786 1026zm3689 2072c0,-366 -121,-680 -364,-939 -244,-260 -529,-390 -858,-390 -340,0 -630,124 -872,371 -243,247 -364,549 -364,905 0,377 122,693 365,949 243,256 537,384 883,384 318,0 600,-128 844,-384 244,-256 366,-554 366,-896zm-12 -1133l0 -716 0 -835 414 0 0 4263 -414 0 0 -487c-143,180 -323,320 -538,420 -215,101 -442,151 -683,151 -464,0 -855,-163 -1173,-491 -319,-328 -478,-731 -478,-1207 0,-472 157,-870 472,-1193 314,-323 708,-485 1179,-485 254,0 485,49 693,148 208,99 385,243 528,432zm1487 -885l-414 0 0 -666 414 0 0 666zm-414 3597l0 -3220 414 0 0 3220 -414 0zm3659 -2230c-127,-235 -282,-409 -465,-521 -182,-113 -400,-169 -652,-169 -332,0 -613,126 -845,378 -231,252 -347,563 -347,933 0,371 116,681 349,930 232,249 519,374 861,374 250,0 471,-61 662,-184 192,-123 337,-296 437,-518l455 0c-125,349 -320,620 -588,811 -267,190 -582,286 -946,286 -465,0 -859,-165 -1180,-496 -321,-331 -482,-730 -482,-1197 0,-475 163,-879 488,-1210 325,-331 721,-497 1186,-497 350,0 658,94 924,283 267,189 465,455 598,797l-455 0zm1313 615c0,372 118,683 355,934 235,251 530,376 881,376 346,0 637,-125 871,-376 234,-251 351,-564 351,-939 0,-380 -119,-693 -355,-938 -238,-245 -539,-368 -905,-368 -328,0 -610,126 -845,378 -235,252 -353,563 -353,933zm-432 8c0,-472 162,-876 486,-1211 324,-336 707,-504 1150,-504 467,0 865,165 1193,495 329,330 493,723 493,1179 0,480 -161,890 -483,1230 -321,339 -712,508 -1171,508 -466,0 -860,-165 -1183,-498 -323,-333 -485,-733 -485,-1199z"/>
  <rect class="fil3" x="1986" y="6994" width="344" height="8088"/>
  <path class="fil4" d="M12362 15082l186 0 0 1191c0,91 3,161 11,206 7,46 19,86 37,122 33,71 82,127 148,168 65,40 138,61 220,61 143,0 248,-49 316,-146 68,-97 102,-247 102,-450l0 -1152 183 0 0 1197c0,244 -49,426 -146,546 -97,119 -244,179 -442,179 -211,0 -366,-58 -466,-175 -99,-118 -149,-301 -149,-550l0 -1197zm1497 461l177 0 0 161c56,-65 121,-113 195,-144 73,-31 158,-47 253,-47 104,0 197,20 279,59 81,39 145,94 193,167 32,50 56,110 70,179 15,68 22,169 22,303l0 744 -180 0 0 -797c0,-168 -33,-290 -97,-366 -64,-76 -167,-114 -308,-114 -83,0 -156,17 -218,50 -62,33 -112,81 -148,143 -23,38 -38,83 -47,132 -10,50 -14,136 -14,260l0 692 -177 0 0 -1422zm1663 -167l-183 0 0 -294 183 0 0 294zm-183 1589l0 -1422 183 0 0 1422 -183 0zm1680 -698c0,-162 -54,-300 -161,-415 -108,-114 -234,-172 -379,-172 -150,0 -279,55 -385,164 -108,109 -161,242 -161,400 0,166 54,306 161,419 107,113 238,169 390,169 141,0 265,-56 373,-169 107,-113 162,-245 162,-396zm-6 -500l0 -317 0 -368 183 0 0 1883 -183 0 0 -216c-63,80 -143,141 -238,186 -94,45 -195,67 -301,67 -205,0 -378,-73 -518,-217 -141,-145 -211,-323 -211,-533 0,-209 69,-385 208,-527 139,-143 313,-214 521,-214 112,0 214,21 306,65 92,44 170,107 233,191zm1674 477c0,-151 -54,-283 -162,-395 -108,-113 -232,-169 -373,-169 -153,0 -283,56 -390,169 -107,112 -161,252 -161,418 0,159 53,292 160,401 107,109 236,164 386,164 145,0 271,-57 378,-172 108,-116 162,-254 162,-416zm0 495c-57,82 -134,146 -231,193 -97,46 -202,70 -314,70 -208,0 -382,-72 -521,-214 -139,-143 -208,-319 -208,-529 0,-212 71,-390 213,-534 141,-143 319,-214 532,-214 109,0 209,22 301,66 91,45 167,109 228,192l0 -226 177 0 0 1422 -177 0 0 -226zm1667 -472c0,-162 -53,-300 -161,-415 -107,-114 -233,-172 -378,-172 -150,0 -279,55 -386,164 -107,109 -160,242 -160,400 0,166 54,306 161,419 107,113 237,169 390,169 140,0 265,-56 372,-169 108,-113 162,-245 162,-396zm-5 -500l0 -317 0 -368 183 0 0 1883 -183 0 0 -216c-63,80 -143,141 -238,186 -95,45 -195,67 -301,67 -205,0 -378,-73 -518,-217 -141,-145 -211,-323 -211,-533 0,-209 69,-385 208,-527 139,-143 312,-214 521,-214 112,0 214,21 306,65 91,44 170,107 233,191zm1867 544l-1285 0c11,154 68,280 168,375 101,96 227,144 378,144 107,0 204,-28 289,-84 85,-55 151,-133 198,-232l207 0c-66,158 -158,279 -276,364 -119,84 -256,126 -412,126 -207,0 -382,-73 -525,-221 -143,-147 -215,-325 -215,-531 0,-217 70,-396 210,-537 140,-142 319,-212 537,-212 214,0 388,74 523,221 135,146 203,338 203,573l0 14zm-202 -159c-34,-158 -98,-278 -190,-357 -92,-80 -213,-120 -361,-120 -138,0 -255,43 -351,129 -95,85 -154,202 -175,348l1077 0zm1370 813l-186 0 0 -1883 186 0 0 1883zm445 0l0 -1240 -270 0 0 -182 270 0 0 -461 183 0 0 461 270 0 0 182 -270 0 0 1240 -183 0zm1801 -721c0,-151 -54,-283 -162,-395 -108,-113 -232,-169 -373,-169 -152,0 -283,56 -390,169 -107,112 -161,252 -161,418 0,159 53,292 161,401 107,109 235,164 385,164 145,0 271,-57 379,-172 107,-116 161,-254 161,-416zm0 495c-57,82 -134,146 -231,193 -97,46 -202,70 -313,70 -209,0 -383,-72 -522,-214 -139,-143 -208,-319 -208,-529 0,-212 71,-390 213,-534 141,-143 319,-214 532,-214 110,0 210,22 301,66 91,45 167,109 228,192l0 -226 177 0 0 1422 -177 0 0 -226zm590 226l0 -1240 -270 0 0 -182 270 0 0 -461 183 0 0 461 270 0 0 182 -270 0 0 1240 -183 0zm784 -1589l-183 0 0 -294 183 0 0 294zm-183 1589l0 -1422 183 0 0 1422 -183 0zm652 -1883l0 593 0 106c77,-92 161,-160 252,-204 91,-44 194,-66 307,-66 200,0 369,72 507,216 138,143 208,319 208,525 0,213 -71,391 -213,534 -141,144 -318,216 -532,216 -105,0 -202,-21 -289,-63 -88,-42 -168,-105 -240,-190l0 216 -180 0 0 -1883 180 0zm0 1185c0,152 54,284 161,397 107,112 231,168 371,168 152,0 283,-56 390,-169 107,-113 161,-253 161,-419 0,-158 -53,-291 -161,-400 -107,-109 -235,-164 -384,-164 -149,0 -276,57 -381,171 -105,114 -157,253 -157,416zm2695 -23c0,-151 -54,-283 -162,-395 -107,-113 -232,-169 -372,-169 -153,0 -283,56 -390,169 -108,112 -162,252 -162,418 0,159 54,292 161,401 107,109 235,164 385,164 146,0 272,-57 379,-172 107,-116 161,-254 161,-416zm0 495c-57,82 -134,146 -231,193 -97,46 -201,70 -313,70 -209,0 -383,-72 -521,-214 -139,-143 -209,-319 -209,-529 0,-212 72,-390 213,-534 142,-143 319,-214 532,-214 110,0 210,22 301,66 92,45 168,109 228,192l0 -226 178 0 0 1422 -178 0 0 -226zm1796 -571l0 172 -607 0 0 -172 607 0zm945 259l177 0c4,117 37,209 100,278 62,69 145,103 247,103 110,0 197,-34 261,-102 65,-69 97,-162 97,-279 0,-171 -132,-300 -397,-387 -20,-7 -36,-12 -46,-15 -138,-48 -237,-108 -298,-181 -60,-72 -91,-167 -91,-285 0,-150 47,-272 141,-368 93,-96 214,-144 362,-144 141,0 253,44 336,131 83,87 129,210 138,367l-174 0c-10,-102 -41,-181 -92,-237 -52,-55 -122,-83 -208,-83 -94,0 -170,30 -229,91 -59,61 -88,138 -88,232 0,49 8,91 26,127 18,36 46,68 85,98 40,29 115,62 228,98 64,21 113,37 147,50 122,48 211,108 264,182 54,74 81,170 81,290 0,183 -50,330 -149,441 -100,112 -232,168 -397,168 -153,0 -278,-53 -374,-158 -95,-106 -144,-245 -147,-417zm1496 -1160l0 718 272 0c152,0 264,-29 337,-87 72,-58 108,-147 108,-268 0,-125 -36,-217 -109,-275 -73,-59 -190,-88 -351,-88l-257 0zm-186 -185l400 0c115,0 207,6 276,18 68,12 126,31 171,58 83,50 147,115 191,195 44,79 67,169 67,269 0,95 -20,183 -60,263 -41,81 -96,145 -168,192 -50,34 -110,58 -179,73 -69,15 -157,23 -265,23l-247 0 0 792 -186 0 0 -1883z"/>
 </g>
</svg>
