<?xml version="1.0" encoding="UTF-8"?>
<!DOCTYPE svg PUBLIC "-//W3C//DTD SVG 1.1//EN" "http://www.w3.org/Graphics/SVG/1.1/DTD/svg11.dtd">
<!-- Creator: CorelDRAW X7 -->
<svg xmlns="http://www.w3.org/2000/svg" xml:space="preserve" width="150mm" height="150mm" version="1.1" style="shape-rendering:geometricPrecision; text-rendering:geometricPrecision; image-rendering:optimizeQuality; fill-rule:evenodd; clip-rule:evenodd"
viewBox="0 0 15000 15000"
 xmlns:xlink="http://www.w3.org/1999/xlink">
 <defs>
  <style type="text/css">
   <![CDATA[
    .fil1 {fill:#A9ABAE}
    .fil0 {fill:#00AFEF}
   ]]>
  </style>
 </defs>
 <g id="Camada_x0020_1">
  <metadata id="CorelCorpID_0Corel-Layer"/>
  <path class="fil0" d="M7878 14681c-9054,-67 -9084,-10144 -879,-11496 -7533,2700 -6569,10602 879,11496z"/>
  <path class="fil0" d="M34 7185c1217,-8020 10736,-7003 11612,-48 -2239,-6450 -9640,-6145 -11612,48z"/>
  <path class="fil0" d="M7856 11676c7933,-983 7040,-10750 -281,-11177 6560,2090 6393,9809 281,11177z"/>
  <path class="fil0" d="M2752 7492c279,8038 10422,7981 11880,879 -2861,6587 -11411,5495 -11880,-879z"/>
  <path class="fil1" d="M7658 10951c3802,-471 3374,-5151 -134,-5356 3143,1001 3063,4701 134,5356z"/>
  <path class="fil1" d="M6989 9584c-3802,-471 -3374,-5152 134,-5356 -3143,1001 -3063,4700 -134,5356z"/>
  <path class="fil1" d="M10587 7859c304,-3771 -4425,-4308 -5340,-957 1632,-2836 5284,-2008 5340,957z"/>
  <path class="fil1" d="M3945 7239c-305,3771 4424,4307 5339,957 -1631,2836 -5283,2008 -5339,-957z"/>
 </g>
</svg>
